<?xml version="1.0" standalone="no"?>
<!DOCTYPE svg PUBLIC "-//W3C//DTD SVG 20010904//EN"
 "http://www.w3.org/TR/2001/REC-SVG-20010904/DTD/svg10.dtd">
<svg version="1.0" xmlns="http://www.w3.org/2000/svg"
 width="700.000000pt" height="700.000000pt" viewBox="0 0 700.000000 700.000000"
 preserveAspectRatio="xMidYMid meet">
<metadata>
Created by potrace 1.14, written by Peter Selinger 2001-2017
</metadata>
<g transform="translate(0.000000,700.000000) scale(0.100000,-0.100000)"
fill="#000000" stroke="none">
<path d="M4389 6488 c-1 -3 -3 -42 -13 -268 -4 -91 -9 -199 -11 -240 -6 -121
-15 -305 -20 -450 -3 -74 -7 -182 -10 -240 -3 -58 -7 -157 -10 -220 -3 -63 -7
-158 -10 -210 -2 -52 -7 -158 -10 -235 -3 -77 -8 -174 -10 -215 -2 -41 -7
-145 -11 -230 -9 -204 -10 -236 -19 -427 -6 -134 -5 -163 7 -164 7 -1 27 -2
45 -4 17 -1 107 -6 200 -9 92 -4 197 -9 233 -11 36 -2 137 -6 225 -10 156 -6
235 -9 480 -20 115 -5 197 -10 385 -20 47 -2 146 -7 220 -10 l135 -6 1 48 c1
53 13 322 19 435 2 40 6 132 10 203 3 72 8 171 10 220 3 50 7 146 10 215 3 69
7 184 10 255 3 72 7 173 10 225 3 52 7 151 10 220 3 69 7 166 10 215 8 150 21
451 30 678 4 81 8 157 10 167 2 11 -2 20 -8 21 -51 4 -320 16 -772 34 -77 4
-167 8 -200 10 -33 2 -130 7 -215 11 -85 3 -173 8 -195 9 -22 1 -114 5 -205 9
-91 4 -204 9 -252 12 -49 2 -88 3 -89 2z m491 -223 c52 -3 109 -8 125 -10 35
-5 118 -13 195 -20 111 -10 236 -26 275 -35 22 -6 51 -12 65 -14 36 -6 89 -25
135 -48 143 -69 220 -153 266 -288 18 -54 22 -89 23 -205 1 -166 -5 -228 -34
-355 -40 -169 -112 -283 -218 -343 l-54 -30 7 -56 c9 -80 88 -451 100 -471 2
-4 7 -22 10 -41 3 -19 10 -59 15 -89 5 -30 11 -68 14 -85 2 -16 8 -50 12 -75
4 -25 8 -55 10 -67 4 -38 21 -144 29 -183 3 -14 8 -41 11 -60 3 -19 8 -44 11
-54 5 -18 0 -19 -118 -12 -68 3 -140 8 -159 10 -19 3 -66 7 -104 11 -38 4 -75
9 -82 12 -14 5 -21 31 -29 113 -3 30 -7 69 -9 85 -3 17 -7 53 -11 80 -3 28 -8
61 -10 75 -3 14 -7 48 -11 75 -3 28 -17 102 -30 165 -42 195 -44 204 -49 240
-3 19 -8 46 -10 60 -2 14 -7 49 -10 79 -3 30 -8 57 -10 61 -2 4 -5 26 -7 49
-1 24 -7 45 -13 47 -22 8 -122 12 -133 5 -6 -3 -13 -33 -16 -66 -3 -33 -8 -80
-11 -105 -6 -56 -12 -170 -20 -375 -8 -219 -18 -385 -30 -505 -2 -14 -3 -33
-4 -43 -1 -17 -8 -18 -93 -13 -51 4 -133 9 -181 12 -49 3 -100 7 -115 9 -15 2
-38 4 -50 4 l-24 1 7 108 c3 59 8 134 10 167 2 33 7 105 10 160 3 55 7 125 10
155 2 30 7 98 11 150 3 52 7 118 9 145 13 171 16 204 20 245 6 63 16 246 30
590 5 136 16 308 20 332 2 9 7 57 10 105 4 48 9 90 10 93 2 3 6 50 10 105 4
55 12 103 17 106 6 4 24 5 42 4 17 -2 74 -6 126 -10z"/>
<path d="M5157 5883 c-11 -19 -19 -82 -33 -276 -3 -43 -7 -86 -9 -96 -2 -10
-6 -79 -10 -154 l-7 -137 44 -1 c181 -5 247 7 302 59 56 53 76 124 82 300 4
123 -13 194 -56 234 -32 30 -99 55 -165 62 -33 4 -79 9 -101 12 -23 3 -44 2
-47 -3z"/>
<path d="M3337 6074 c-1 -1 -74 -5 -162 -9 -88 -3 -185 -8 -215 -10 -49 -3
-191 -10 -395 -20 -38 -2 -142 -6 -230 -10 -88 -4 -187 -8 -220 -10 -33 -2
-116 -6 -185 -10 -69 -3 -154 -7 -190 -10 -82 -5 -375 -19 -630 -30 -146 -7
-207 -10 -430 -21 -131 -7 -183 -10 -216 -13 -7 -1 -10 -24 -8 -63 4 -105 16
-360 19 -418 2 -30 6 -116 10 -190 3 -74 8 -162 10 -195 2 -33 7 -127 10 -210
4 -82 8 -184 10 -225 2 -41 6 -138 10 -215 3 -77 8 -171 10 -210 6 -99 14
-271 20 -405 3 -63 7 -160 10 -215 3 -55 7 -156 10 -225 3 -69 7 -163 10 -210
2 -47 7 -139 10 -205 3 -66 7 -156 10 -200 6 -106 21 -422 30 -640 3 -71 8
-164 10 -205 2 -41 7 -140 10 -220 4 -80 8 -165 10 -190 3 -36 16 -306 18
-358 0 -13 24 -13 337 3 69 4 316 15 435 20 194 9 334 15 415 20 226 13 273
15 385 20 66 3 161 7 210 10 50 3 149 7 220 10 72 3 162 8 200 10 39 2 131 7
205 11 74 3 155 8 180 9 36 2 390 17 438 18 10 0 15 9 14 27 -3 72 -15 331
-17 375 -2 33 -7 119 -10 190 -3 72 -8 168 -10 215 -3 47 -7 139 -10 205 -3
66 -7 156 -10 200 -7 116 -15 264 -20 390 -8 216 -27 631 -40 895 -2 47 -7
144 -10 215 -3 72 -8 162 -10 200 -7 108 -14 256 -20 415 -3 80 -8 183 -10
230 -2 47 -7 137 -10 200 -3 63 -8 153 -10 200 -6 124 -16 313 -20 405 -2 44
-7 150 -11 235 -3 85 -7 169 -8 185 l-2 30 -77 1 c-43 0 -78 -1 -80 -2z
m-1087 -328 c329 -31 571 -206 721 -521 43 -91 93 -235 105 -302 3 -15 7 -30
9 -33 2 -4 6 -20 9 -36 3 -16 14 -81 25 -144 11 -63 23 -142 26 -175 4 -33 13
-95 20 -138 14 -89 14 -89 -72 -102 -21 -3 -50 -7 -63 -10 -108 -21 -142 -26
-195 -31 -57 -5 -339 -39 -417 -50 -40 -5 -41 -4 -52 91 -14 108 -17 133 -22
170 -3 22 -12 74 -20 115 -7 41 -16 91 -18 110 -7 51 -41 176 -67 244 -27 74
-97 152 -148 166 -53 15 -180 12 -229 -5 -90 -32 -153 -89 -189 -173 -13 -28
-17 -71 -17 -177 -1 -121 3 -170 19 -270 2 -11 6 -42 9 -70 4 -27 9 -61 11
-75 3 -14 7 -47 10 -75 16 -150 34 -259 60 -375 8 -38 44 -250 49 -295 10 -84
19 -181 18 -195 0 -14 31 -209 43 -270 3 -14 9 -50 15 -80 8 -51 12 -77 25
-180 3 -22 7 -57 10 -77 23 -187 39 -272 66 -357 66 -209 118 -293 207 -334
48 -22 64 -24 137 -19 162 10 258 83 299 228 14 53 15 217 1 279 -3 14 -8 41
-11 60 -3 19 -9 51 -14 70 -5 19 -16 87 -25 150 -22 161 -25 181 -31 217 -7
37 -10 36 128 63 26 5 69 12 96 15 27 3 57 7 68 9 39 7 117 16 384 42 30 3 69
7 86 9 31 4 32 4 42 -53 11 -55 18 -117 26 -212 2 -25 7 -79 11 -121 4 -41 9
-93 10 -115 6 -60 6 -376 0 -404 -2 -14 -9 -56 -15 -93 -42 -270 -216 -494
-484 -625 -110 -53 -246 -98 -355 -117 -19 -3 -37 -8 -40 -10 -16 -9 -181 -19
-316 -19 -424 1 -727 179 -904 529 -71 140 -173 489 -195 665 -3 25 -8 64 -11
87 -3 23 -8 55 -10 70 -2 15 -8 57 -13 93 -6 36 -13 88 -17 115 -9 73 -14 107
-35 235 -11 63 -26 162 -35 220 -8 58 -17 116 -19 130 -8 45 -26 174 -31 225
-6 60 -14 112 -20 145 -3 14 -10 54 -15 90 -5 36 -12 76 -14 90 -28 149 -41
518 -24 665 24 200 101 419 191 543 149 203 439 339 818 386 182 23 250 25
389 12z"/>
<path d="M6037 3384 c-1 -1 -42 -5 -92 -8 -49 -4 -112 -9 -140 -11 -49 -4
-141 -11 -260 -20 -33 -3 -89 -7 -125 -10 -36 -3 -90 -8 -120 -10 -165 -12
-226 -17 -360 -30 -74 -7 -148 -13 -250 -20 -47 -3 -96 -8 -110 -10 -14 -2
-79 -7 -145 -11 -66 -4 -127 -8 -135 -10 -8 -1 -21 -3 -28 -3 -11 -1 -12 -23
-7 -108 3 -60 8 -119 10 -133 3 -25 11 -126 20 -255 3 -33 7 -80 10 -105 3
-25 7 -82 10 -128 2 -46 7 -102 9 -125 3 -23 8 -82 11 -132 3 -49 8 -110 10
-135 2 -25 6 -88 10 -140 6 -90 10 -141 20 -255 2 -27 7 -86 10 -130 4 -44 8
-96 10 -115 2 -19 6 -78 10 -130 3 -52 8 -111 10 -130 3 -19 7 -78 11 -130 3
-52 7 -111 9 -130 2 -19 6 -78 10 -130 4 -52 8 -111 10 -130 2 -19 7 -84 11
-145 4 -60 8 -119 8 -130 2 -33 16 -45 44 -40 35 6 113 12 237 20 55 3 116 8
135 10 19 2 73 7 120 10 96 7 170 12 250 19 30 3 91 8 135 11 89 6 109 8 375
31 30 2 75 7 100 9 25 3 77 7 115 10 179 12 261 17 275 17 28 -1 70 10 66 16
-2 4 -7 57 -11 117 -4 61 -9 121 -10 135 -1 14 -5 68 -9 120 -4 52 -9 111 -11
130 -2 19 -7 76 -10 125 -4 50 -8 106 -10 125 -2 19 -7 78 -10 130 -6 93 -9
137 -20 270 -10 118 -15 184 -20 252 -6 80 -13 168 -20 258 -7 93 -13 163 -20
255 -3 44 -8 98 -10 120 -2 22 -7 81 -10 130 -3 50 -8 108 -10 130 -2 22 -6
83 -10 135 -3 52 -8 109 -10 125 -2 17 -7 80 -11 140 -4 61 -8 117 -10 125 -1
8 -3 18 -3 21 -1 5 -58 8 -64 3z m-627 -219 c101 -26 169 -64 236 -131 76 -77
116 -158 156 -313 22 -89 30 -144 33 -238 6 -202 -30 -323 -126 -425 -27 -29
-49 -57 -49 -62 0 -6 29 -78 63 -161 35 -82 77 -184 92 -225 48 -129 141 -352
185 -445 50 -106 130 -300 130 -314 0 -13 -21 -18 -95 -26 -33 -3 -71 -8 -85
-10 -14 -2 -45 -7 -70 -10 -25 -4 -75 -13 -112 -21 -65 -15 -88 -13 -88 7 0 5
-22 57 -50 115 -27 58 -50 107 -50 109 0 2 -15 36 -34 77 -87 189 -213 492
-253 608 -32 92 -49 119 -71 114 -9 -1 -41 -8 -71 -15 l-53 -12 7 -51 c4 -28
8 -60 9 -71 2 -11 6 -38 9 -60 4 -22 9 -58 12 -80 9 -64 35 -203 55 -290 10
-44 21 -102 25 -129 3 -27 12 -83 20 -125 20 -106 22 -118 31 -186 8 -56 8
-71 5 -94 0 -5 -25 -12 -53 -16 -29 -4 -61 -9 -72 -11 -10 -2 -38 -6 -62 -8
-24 -3 -72 -10 -106 -15 -125 -19 -168 -21 -169 -8 0 6 -2 21 -4 32 -2 11 -6
34 -9 50 -3 17 -8 48 -11 70 -3 22 -7 49 -9 61 -2 12 -7 45 -11 74 -4 29 -8
61 -10 71 -2 9 -7 39 -11 66 -3 26 -8 57 -10 68 -3 11 -7 36 -10 55 -3 19 -9
60 -14 90 -6 30 -13 75 -16 100 -3 25 -7 56 -10 70 -2 14 -9 54 -14 90 -6 36
-20 121 -31 190 -11 69 -22 141 -25 160 -2 19 -11 73 -19 120 -8 47 -17 108
-20 135 -3 28 -8 61 -10 75 -2 14 -7 42 -10 63 -3 20 -8 54 -11 75 -3 20 -7
51 -9 69 -4 35 -19 121 -40 233 -8 41 -17 89 -20 105 -3 17 -12 68 -21 115 -8
47 -17 110 -20 141 l-6 57 54 7 c29 4 60 9 68 10 8 2 38 6 65 9 28 4 95 15
150 26 55 10 120 22 145 25 25 3 81 12 125 19 105 17 292 13 375 -9z"/>
<path d="M5075 2825 c-5 -2 -36 -9 -67 -15 -53 -11 -58 -14 -58 -38 0 -15 4
-43 9 -62 5 -19 12 -54 15 -76 3 -23 12 -84 20 -135 20 -127 31 -210 41 -291
10 -87 17 -109 34 -104 9 3 41 8 71 11 166 20 260 120 266 285 4 117 -39 276
-96 356 -34 48 -84 71 -157 72 -37 0 -72 -1 -78 -3z"/>
</g>
</svg>
